<svg width="375" height="301" viewBox="0 0 375 301" fill="none" xmlns="http://www.w3.org/2000/svg">
<g filter="url(#filter0_d)">
<path d="M171.779 39.0271C166.388 39.87 153.169 12.0988 154.757 8.90194C156.344 5.70504 174.92 6.81355 176.701 10.1824C178.482 13.5512 174.245 38.6413 171.779 39.0271Z" fill="#68413C"/>
<path d="M277.986 204.131L271.96 220.129C278.472 223.85 294.844 221.616 299.868 201.889C299.868 201.889 289.034 209.724 277.986 204.131Z" fill="#FFA35F"/>
<path d="M109.598 232.288H266.875C266.875 232.288 290.889 195.237 269.355 182.159C255.463 173.722 239.588 179.676 226.192 168.261C212.795 156.847 191.461 136 187.988 121.112C184.515 106.222 103.644 174.218 109.598 232.288Z" fill="#FFA35F"/>
<path d="M204.749 147.547C210.048 151.535 217.12 156.98 220.011 159.219C220.011 159.219 214.275 158.566 211.897 158.004C209.517 157.445 204.749 147.547 204.749 147.547Z" fill="#FFA35F"/>
<path d="M197.474 139.334C202.773 143.324 209.844 148.767 212.735 151.008C212.735 151.008 206.999 150.353 204.621 149.793C202.242 149.234 197.474 139.334 197.474 139.334Z" fill="#FFA35F"/>
<path d="M210.782 155.663C216.547 158.94 224.256 163.435 227.41 165.285C227.41 165.285 221.638 165.372 219.208 165.121C216.776 164.87 210.782 155.663 210.782 155.663Z" fill="#FFA35F"/>
<path d="M219.82 163.301C225.846 166.071 233.912 169.885 237.214 171.457C237.214 171.457 231.469 172.04 229.027 172C226.583 171.959 219.82 163.301 219.82 163.301Z" fill="#FFA35F"/>
<path d="M228.496 171.4C235.382 172.324 243.153 173.453 245.942 173.869C245.942 173.869 241.547 176.071 239.466 176.826C237.277 177.624 228.496 171.4 228.496 171.4Z" fill="#FFA35F"/>
<path d="M239.716 175.071C246.345 175.3 255.259 175.707 258.912 175.882C258.912 175.882 253.837 178.638 251.566 179.544C249.295 180.447 239.716 175.071 239.716 175.071Z" fill="#FFA35F"/>
<path d="M186.992 176.854C183.616 178.5 141.376 227.038 136.436 232.288H163.562C163.562 232.288 176.097 224.946 180.462 218.377C188.827 205.787 192.119 189.143 194.606 184.099C198.39 176.425 190.367 175.209 186.992 176.854Z" fill="#FFC37B"/>
<path d="M180.462 218.377C188.758 205.863 195.607 185.517 196.086 181.658C197.14 173.166 189.874 174.179 186.498 175.822C183.677 177.198 156.191 210.328 143.625 224.105C159.102 218.319 176.724 218.788 180.462 218.377Z" fill="#FFB469"/>
<path d="M106.097 191.55C104.042 192.736 95.295 229.916 93.1624 232.288H117.878C117.878 232.288 121.919 202.822 120.908 197.285C119.897 191.749 108.152 190.364 106.097 191.55Z" fill="#FFC37B"/>
<path d="M120.908 197.285C119.897 191.749 108.152 190.364 106.097 191.55C104.945 192.215 101.694 204.175 98.6819 214.984C104.089 217.939 109.535 223.962 113.298 231.86C113.367 232.002 113.421 232.145 113.488 232.288H117.878C117.878 232.288 121.919 202.822 120.908 197.285Z" fill="#FFB469"/>
<path d="M183.771 97.7832C197.911 101.009 223.457 128.779 226.439 141.46C227.431 145.679 201.748 143.278 194.802 138.811C189.724 132.775 183.771 97.7832 183.771 97.7832Z" fill="#FFC37B"/>
<path d="M184.363 101.094C195.887 103.723 216.706 126.355 219.136 136.689C219.945 140.128 199.013 138.171 193.353 134.532C189.214 129.611 184.363 101.094 184.363 101.094Z" fill="#CE413E"/>
<path d="M183.63 103.353C194.84 106.629 213.534 125.36 215.048 133.059C215.551 135.62 194.942 131.689 189.64 128.397C185.961 124.371 183.63 103.353 183.63 103.353Z" fill="#E25E54"/>
<path d="M119.024 226.829C102.155 215.909 63.4557 155.853 78.3402 116.148C93.2246 76.4421 140.358 12.9124 145.816 9.93494C151.274 6.95611 171.119 10.4298 171.119 14.8973C171.119 19.3649 172.607 55.0997 174.593 63.0409C176.577 70.9835 194.593 126.227 194.934 140.84C195.219 153.05 150.281 219.384 119.024 226.829Z" fill="#FFC37B"/>
<path d="M171.207 18.5486C171.15 16.8166 171.119 15.5334 171.119 14.8974C171.119 14.7072 171.07 14.5185 171.001 14.3326C171.064 15.6829 171.132 17.0934 171.207 18.5486Z" fill="#FFB469"/>
<path d="M193.67 131.667C187.865 149.975 147.331 207.076 118.465 213.952C105.451 205.527 79.4515 167.862 75.0783 132.855C73.343 170.919 104.392 217.357 119.024 226.829C150.281 219.384 195.219 153.05 194.934 140.84C194.882 138.619 194.42 135.455 193.67 131.667Z" fill="#FFB469"/>
<path d="M171.135 95.5802C165.797 72.2598 167.229 50.2086 171.924 34.3611C171.417 25.1436 171.119 16.8935 171.119 14.8973C171.119 10.4298 151.274 6.95611 145.816 9.93494C140.358 12.9124 93.2246 76.4421 78.3402 116.148C63.4557 155.853 102.155 215.909 119.024 226.829C126.863 224.961 135.561 219.39 144.192 211.897C164.852 171.542 175.719 115.614 171.135 95.5802Z" fill="#FFE8CA"/>
<path d="M117.967 220.43C107.859 214.206 89.9932 189.19 79.6486 163.915C88.5904 192.86 108.255 221.297 119.024 228.268C126.863 226.4 135.561 219.39 144.192 211.897C148.003 206.527 150.192 199.589 152.422 193.794C142.592 206.807 126.207 218.563 117.967 220.43Z" fill="#EFCEA8"/>
<path d="M143.955 18.9302C140.049 22.0949 132.606 27.1202 135.397 30.0962C138.188 33.0751 143.955 28.9808 140.792 26.747C139.059 25.5239 143.955 18.9302 143.955 18.9302Z" fill="#68413C"/>
<path d="M219.451 232.288H265.53C265.53 232.288 287.17 193.844 268.7 186.008C250.233 178.168 219.451 232.288 219.451 232.288Z" fill="#FFB469"/>
<path d="M227.1 232.288H200.236C200.236 232.288 202.289 225.01 209.004 223.518C215.72 222.023 229.712 224.823 229.712 224.823L227.1 232.288Z" fill="#FFB469"/>
<path d="M147.815 232.288H128.928C128.928 232.288 129.207 225.048 151.703 222.995L147.815 232.288Z" fill="#FFC37B"/>
<path d="M99.8717 232.288H80.9842C80.9842 232.288 81.2637 225.048 103.76 222.995L99.8717 232.288Z" fill="#FFC37B"/>
</g>
<path d="M67.6018 281.718C67.6018 280.034 65.5766 279.169 64.1815 279.169C62.0663 279.169 59.9961 281.49 57.926 281.49C57.3409 281.49 56.8909 281.308 56.4408 280.989C53.7406 279.033 53.2906 273.663 53.2906 270.568C53.2906 266.973 53.9657 263.105 55.6758 259.919C56.2158 258.918 57.5659 256.961 58.781 256.961C60.6712 256.961 61.7063 258.782 64.1815 258.782C65.5316 258.782 67.6018 257.963 67.6018 256.324C67.6018 255.187 66.6117 254.368 65.7566 253.867C63.6864 252.638 61.3462 251.819 58.916 251.819C49.4203 251.819 46 262.65 46 270.614C46 278.168 49.1503 286.587 57.926 286.587C59.9061 286.587 61.8413 286.132 63.6414 285.267C65.1266 284.585 67.6018 283.674 67.6018 281.718Z" fill="#815724"/>
<path d="M83.0317 254.049C82.1316 254.049 81.2315 254.276 80.4665 254.777C79.0263 255.733 78.9363 258.19 78.4863 259.737C77.8113 262.058 77.0912 264.425 76.4161 266.746C75.201 270.841 73.7159 275.21 73.7159 279.533C73.7159 281.445 75.6511 282.127 77.2262 282.127C81.4566 282.127 80.6015 278.805 81.1865 276.12C81.3665 275.301 81.5466 274.527 81.7266 273.708C81.8166 273.39 81.9066 273.208 82.2666 273.208C82.4916 273.208 82.7167 273.253 82.9867 273.253C84.8768 273.253 86.812 273.208 88.7021 273.208C89.1072 273.208 89.1522 273.481 89.2422 273.799C89.4672 274.482 89.6472 275.21 89.8272 275.938C90.5023 278.805 90.3673 281.627 94.1926 281.627C96.0827 281.627 97.7929 280.58 97.7929 278.532C97.7929 277.94 97.6129 277.349 97.4328 276.803C95.1827 270.477 93.7425 261.148 88.6571 256.461C87.217 255.096 85.0118 254.049 83.0317 254.049ZM85.1018 262.695C85.2819 262.695 85.3719 262.923 85.4619 263.059C85.8219 263.697 87.262 266.928 87.262 267.474C87.262 267.883 86.947 268.156 86.542 268.156H84.2468C83.8417 268.156 83.4817 267.883 83.4817 267.428C83.4817 267.292 84.5618 263.56 84.6968 263.151C84.7418 262.968 84.8768 262.695 85.1018 262.695Z" fill="#815724"/>
<path d="M125.709 282.218C125.709 280.079 124.718 279.988 123.548 279.351C120.713 277.804 118.013 275.938 115.268 274.209C115.088 274.072 114.908 273.89 114.908 273.663C114.908 273.39 115.088 273.208 115.268 273.071C119.273 270.022 123.503 265.835 123.503 260.329C123.503 255.05 118.463 252.729 113.918 252.729C111.892 252.729 106.042 253.503 104.692 254.959C103.297 256.461 104.062 258.964 104.062 260.693C104.197 267.246 104.377 273.845 104.917 280.398C105.142 283.174 105.727 285.904 109.102 285.904C110.497 285.904 112.702 285.131 112.702 283.401C112.702 282.4 112.297 281.399 112.297 280.352C112.297 280.079 112.342 279.715 112.657 279.715C113.333 279.715 118.688 284.494 122.558 284.494C123.998 284.494 125.709 283.902 125.709 282.218ZM116.123 260.238C116.123 262.786 114.188 265.744 112.432 267.428C112.297 267.519 112.162 267.656 112.027 267.656C111.712 267.656 111.622 267.292 111.622 267.064C111.442 264.334 111.352 261.512 111.352 258.782C111.352 258.099 113.333 258.054 113.873 258.054C115.403 258.054 116.123 258.645 116.123 260.238L116.123 260.238Z" fill="#815724"/>
<path d="M145.452 252.593C144.642 252.593 143.787 252.775 143.157 253.23C138.882 256.461 135.507 265.062 133.481 271.296C133.211 272.07 132.491 272.525 132.491 273.435C132.491 273.845 132.626 274.3 132.626 274.709C132.626 276.166 131.816 277.667 131.816 279.124C131.816 281.035 133.932 281.718 135.507 281.718C138.882 281.718 139.017 279.215 139.557 276.621C139.692 276.029 139.647 276.029 140.277 275.984C141.942 275.847 143.607 275.711 145.272 275.483C145.947 275.392 146.623 275.21 147.298 275.21C147.703 275.21 148.018 277.713 148.063 278.214C148.378 280.944 148.018 283.174 151.933 283.174C153.508 283.174 155.578 282.4 155.578 280.534C155.578 276.439 154.273 272.389 153.283 268.429C152.203 264.061 150.178 260.147 149.233 255.733C148.828 253.867 147.343 252.593 145.452 252.593ZM141.672 270.614C141.447 270.614 141.357 270.341 141.357 270.159C141.357 269.249 143.832 262.923 144.327 262.923C144.507 262.923 144.597 263.242 144.642 263.378C144.822 264.106 146.128 268.839 146.128 269.249C146.128 269.704 145.722 270.113 145.272 270.159C144.102 270.341 142.842 270.614 141.672 270.614Z" fill="#815724"/>
<path d="M190.836 251.455C185.795 251.455 181.205 262.741 179.225 262.741C178.37 262.741 177.695 261.558 177.155 260.966C175.04 258.645 170.629 255.232 167.434 255.232C166.534 255.232 165.634 255.505 164.959 256.142C162.799 258.19 161.673 276.666 161.673 280.398C161.673 282.901 162.844 284.175 165.364 284.175C167.929 284.175 168.964 282.946 168.964 280.443C168.964 275.711 169.279 271.069 169.774 266.336C169.819 265.835 169.954 263.469 170.584 263.469C171.799 263.469 175.895 270.432 179.36 270.432C183.5 270.432 186.29 264.152 186.875 264.152C187.101 264.152 187.101 264.516 187.101 264.652C187.236 266.928 187.191 269.249 187.281 271.524C187.416 274.755 186.966 279.988 191.556 279.988C193.086 279.988 195.471 278.896 195.471 277.076C195.471 276.257 194.841 275.483 194.661 274.664C194.391 273.435 194.436 272.116 194.391 270.841C194.166 265.562 194.256 260.238 194.256 254.959C194.256 252.729 193.086 251.455 190.836 251.455H190.836Z" fill="#815724"/>
<path d="M218.981 280.216C218.981 278.578 216.821 277.758 215.47 277.758C213.67 277.758 212.185 279.306 210.385 279.306C209.575 279.306 209.71 278.532 209.71 277.941C209.71 277.85 209.71 277.758 209.71 277.667C209.485 275.483 209.305 273.299 209.305 271.069C209.305 269.658 211.15 270.022 212.05 270.022C212.59 270.022 213.13 270.022 213.715 270.022C215.47 270.022 218.846 269.84 218.846 267.337C218.846 265.517 217.001 264.834 215.515 264.834C214.57 264.834 213.67 264.925 212.77 264.925C212.005 264.925 211.195 264.925 210.43 264.925C209.845 264.925 209.485 264.47 209.485 263.924C209.485 262.786 209.755 259.419 209.935 258.327C210.025 257.735 210.475 257.371 211.06 257.325C213.13 257.189 219.656 257.689 219.656 254.595C219.656 252.866 217.901 252.274 216.505 252.274C214.57 252.274 212.77 252.183 210.97 252.183C210.115 252.183 209.26 252.138 208.45 252.138C207.55 252.138 206.695 252.183 205.84 252.456C204.264 252.957 203.364 254.185 203.139 255.824C202.554 260.465 202.194 265.244 202.194 269.931C202.194 271.751 202.239 273.572 202.374 275.392C202.599 278.532 202.284 284.402 206.74 284.402H208.765C211.6 284.402 217.181 284.084 218.711 281.217C218.891 280.898 218.981 280.58 218.981 280.216L218.981 280.216Z" fill="#815724"/>
<path d="M234.152 278.578V278.305C234.377 274.254 234.962 270.295 234.962 266.2C234.962 264.015 234.512 256.688 232.937 255.323C232.217 254.686 231.182 254.459 230.237 254.459C228.661 254.459 226.456 255.278 226.456 257.189C226.456 257.416 226.501 257.644 226.546 257.872C227.311 260.83 227.536 263.651 227.536 266.7C227.536 270.523 227.176 274.391 226.771 278.214C226.681 279.26 226.366 280.261 226.366 281.308C226.366 282.127 226.546 282.855 227.176 283.401C228.436 284.494 230.146 284.357 231.677 284.448C234.197 284.585 236.717 285.176 239.237 285.176C240.857 285.176 243.557 284.539 243.557 282.446C243.557 278.077 234.152 280.899 234.152 278.578L234.152 278.578Z" fill="#815724"/>
<path d="M262.181 252.593C261.371 252.593 260.516 252.775 259.885 253.23C255.61 256.461 252.235 265.062 250.21 271.296C249.94 272.07 249.22 272.525 249.22 273.435C249.22 273.845 249.355 274.3 249.355 274.709C249.355 276.166 248.545 277.667 248.545 279.124C248.545 281.035 250.66 281.718 252.235 281.718C255.61 281.718 255.745 279.215 256.285 276.621C256.42 276.029 256.375 276.029 257.005 275.984C258.67 275.847 260.336 275.711 262.001 275.483C262.676 275.392 263.351 275.21 264.026 275.21C264.431 275.21 264.746 277.713 264.791 278.214C265.106 280.944 264.746 283.174 268.661 283.174C270.236 283.174 272.307 282.4 272.307 280.534C272.307 276.439 271.001 272.389 270.011 268.429C268.931 264.061 266.906 260.147 265.961 255.733C265.556 253.867 264.071 252.593 262.181 252.593ZM258.4 270.614C258.175 270.614 258.085 270.341 258.085 270.159C258.085 269.249 260.561 262.923 261.056 262.923C261.236 262.923 261.326 263.242 261.371 263.378C261.551 264.106 262.856 268.839 262.856 269.249C262.856 269.704 262.451 270.113 262.001 270.159C260.831 270.341 259.57 270.614 258.4 270.614Z" fill="#815724"/>
<path d="M290.193 251.364C288.482 251.364 286.547 252.047 285.422 252.047C284.612 252.047 283.847 251.728 283.037 251.728C281.822 251.728 280.292 252.229 279.707 253.412C279.302 254.231 279.437 255.232 279.437 256.142C279.437 261.148 279.302 266.154 279.302 271.16C279.302 272.207 278.402 272.707 278.402 273.663C278.402 274.664 279.302 275.483 279.302 276.53C279.302 279.806 279.392 283.083 279.527 286.359C279.572 287.588 279.572 288.635 280.697 289.363C281.372 289.772 282.137 290 282.947 290C285.152 290 286.862 289.09 286.862 286.632C286.862 285.722 286.682 284.812 286.637 283.902C286.547 281.718 286.502 279.442 286.502 277.258C286.502 276.575 286.637 276.621 287.177 276.621C287.987 276.621 289.653 276.12 290.418 275.847C296.358 273.617 299.643 267.701 299.643 261.467C299.643 255.46 296.268 251.364 290.193 251.364ZM287.132 271.296C286.727 271.296 286.502 270.841 286.502 270.477V263.651C286.502 261.785 286.592 259.874 286.592 258.008C286.592 256.961 288.707 256.552 289.562 256.552C291.993 256.552 292.533 260.01 292.533 261.922C292.533 265.426 290.868 269.749 287.447 271.205C287.357 271.251 287.267 271.296 287.132 271.296L287.132 271.296Z" fill="#815724"/>
<path d="M306.668 256.552C306.668 257.735 306.848 258.873 306.893 260.056L307.028 263.287C307.073 263.833 307.163 264.425 307.163 264.971C307.163 266.336 306.353 266.427 306.353 267.519C306.353 268.475 307.118 269.021 307.208 270.295C307.253 270.705 307.253 271.114 307.253 271.524C307.298 273.936 307.433 276.348 307.433 278.76C307.433 279.351 307.433 279.988 307.433 280.625C307.433 283.629 308.243 285.176 311.439 285.176C312.879 285.176 314.769 284.63 314.769 282.855V282.719C314.544 279.033 314.364 275.392 314.364 271.706C314.364 271.114 314.814 270.841 315.309 270.705C315.669 270.614 316.074 270.523 316.434 270.432C320.934 269.294 328 264.789 328 259.51C328 258.145 327.505 256.825 326.74 255.687C324.445 252.274 319.809 251 315.939 251C314.274 251 312.654 251.227 311.124 251.774C309.864 252.229 307.793 253.093 307.118 254.277C306.713 254.959 306.668 255.778 306.668 256.552L306.668 256.552ZM314.814 265.335C314.409 265.335 314.139 264.925 314.139 264.561L314.004 260.375C313.959 259.282 313.914 258.19 313.914 257.098C313.914 256.142 315.669 256.142 316.299 256.142C317.694 256.142 319.224 256.506 320.169 257.599C320.439 257.872 320.754 258.372 320.799 258.736C320.845 259.055 320.845 259.373 320.845 259.692C320.845 262.286 317.154 264.379 315.129 265.244C315.039 265.29 314.904 265.335 314.814 265.335L314.814 265.335Z" fill="#815724"/>
<defs>
<filter id="filter0_d" x="71" y="7" width="232.868" height="233.288" filterUnits="userSpaceOnUse" color-interpolation-filters="sRGB">
<feFlood flood-opacity="0" result="BackgroundImageFix"/>
<feColorMatrix in="SourceAlpha" type="matrix" values="0 0 0 0 0 0 0 0 0 0 0 0 0 0 0 0 0 0 127 0"/>
<feOffset dy="4"/>
<feGaussianBlur stdDeviation="2"/>
<feColorMatrix type="matrix" values="0 0 0 0 0 0 0 0 0 0 0 0 0 0 0 0 0 0 0.25 0"/>
<feBlend mode="normal" in2="BackgroundImageFix" result="effect1_dropShadow"/>
<feBlend mode="normal" in="SourceGraphic" in2="effect1_dropShadow" result="shape"/>
</filter>
</defs>
</svg>
